<mxfile host="app.diagrams.net" modified="2023-08-12T07:28:04.815Z" agent="Mozilla/5.0 (Macintosh; Intel Mac OS X 10_15_7) AppleWebKit/537.36 (KHTML, like Gecko) Chrome/115.0.0.0 Safari/537.36" version="21.6.6" etag="w60FM2udv6J1_xW97n_c" type="github">
  <diagram name="Page-1" id="2S5bmKVj7kkO1wt5wLKV">
    <mxGraphModel>
      <root>
        <mxCell id="0" />
        <mxCell id="1" parent="0" />
      </root>
    </mxGraphModel>
  </diagram>
</mxfile>
